<?xml version="1.0" standalone="no"?>
<!DOCTYPE svg PUBLIC "-//W3C//DTD SVG 20010904//EN"
 "http://www.w3.org/TR/2001/REC-SVG-20010904/DTD/svg10.dtd">
<svg version="1.0" xmlns="http://www.w3.org/2000/svg"
 width="213.000000pt" height="231.000000pt" viewBox="0 0 213.000000 231.000000"
 preserveAspectRatio="xMidYMid meet">

<g transform="translate(0.000000,231.000000) scale(0.100000,-0.100000)"
fill="#000000" stroke="none">
<path d="M719 2244 c-9 -11 -12 -45 -11 -117 2 -55 5 -104 8 -109 18 -28 76
-25 96 6 4 6 8 54 8 107 0 80 -3 99 -18 112 -23 21 -66 22 -83 1z"/>
<path d="M372 2104 c-42 -29 -30 -63 52 -142 41 -40 80 -72 88 -72 27 0 58 31
58 59 0 21 -17 44 -74 99 -41 40 -80 72 -88 72 -7 0 -24 -7 -36 -16z"/>
<path d="M1023 2047 c-42 -42 -73 -82 -73 -93 0 -27 20 -50 48 -59 20 -6 36 5
104 73 68 68 79 84 73 104 -9 28 -32 48 -59 48 -11 0 -51 -31 -93 -73z"/>
<path d="M1530 2084 c-22 -9 -169 -148 -384 -362 -191 -191 -350 -342 -353
-335 -16 42 -132 199 -178 242 -91 83 -138 106 -215 106 -112 0 -189 -59 -197
-152 -4 -42 0 -55 33 -108 119 -191 133 -219 148 -285 17 -72 20 -224 8 -382
l-7 -88 -88 -88 c-66 -66 -87 -94 -87 -114 0 -27 31 -58 59 -58 21 0 190 169
214 215 20 37 22 58 25 255 5 297 -5 336 -139 545 -61 94 -65 116 -28 135 10
6 37 10 61 10 36 0 53 -7 100 -45 65 -51 141 -154 198 -266 37 -72 53 -89 85
-89 7 0 182 168 387 374 206 205 383 378 395 385 45 23 101 -24 89 -74 -3 -13
-141 -161 -305 -328 -247 -251 -301 -310 -305 -338 -3 -19 -5 -83 -4 -144 3
-102 1 -114 -25 -166 -17 -35 -50 -78 -87 -112 -33 -30 -60 -63 -60 -72 0 -35
20 -55 55 -55 74 0 193 143 225 272 12 47 13 48 52 46 36 -1 41 -5 60 -45 28
-60 76 -95 138 -101 44 -4 50 -7 55 -33 7 -29 54 -85 88 -104 16 -9 11 -19
-53 -100 -113 -142 -255 -280 -314 -306 -56 -25 -131 -29 -229 -15 l-59 9
-109 -109 c-85 -85 -109 -115 -109 -136 0 -27 31 -58 59 -58 7 0 54 39 103 87
l89 87 122 1 c118 0 124 1 191 34 53 26 91 56 163 130 102 104 230 257 278
334 17 26 37 49 46 52 9 3 57 48 107 99 90 93 112 132 112 196 -1 62 -68 152
-125 166 -17 4 -24 15 -29 46 -13 78 -60 140 -118 153 -24 6 -28 12 -28 42 0
47 -25 96 -67 134 l-35 31 110 111 c128 131 145 165 122 249 -14 50 -55 97
-105 119 -48 22 -88 23 -135 3z m-12 -628 c7 -14 11 -34 8 -44 -4 -10 -68 -80
-144 -155 -148 -146 -170 -159 -212 -117 -42 42 -29 64 117 211 75 76 146 140
157 141 34 6 60 -7 74 -36z m130 -182 c15 -10 22 -25 22 -48 0 -28 -15 -47
-113 -144 -63 -62 -122 -112 -131 -112 -52 0 -85 53 -62 98 8 15 59 71 114
125 104 102 126 112 170 81z m152 -204 c40 -40 27 -69 -69 -164 -100 -97 -126
-106 -164 -54 -28 38 -13 69 83 162 84 82 113 93 150 56z"/>
</g>
</svg>
