<?xml version="1.0" standalone="no"?>
<!DOCTYPE svg PUBLIC "-//W3C//DTD SVG 20010904//EN"
 "http://www.w3.org/TR/2001/REC-SVG-20010904/DTD/svg10.dtd">
<svg version="1.0" xmlns="http://www.w3.org/2000/svg"
 width="128.000000pt" height="128.000000pt" viewBox="0 0 128.000000 128.000000"
 preserveAspectRatio="xMidYMid meet">

<g transform="translate(0.000000,128.000000) scale(0.100000,-0.100000)"
fill="#000000" stroke="none">
<path d="M303 1156 c-22 -19 -28 -32 -28 -66 0 -38 6 -47 44 -81 50 -45 49
-46 -14 -19 -58 25 -78 25 -73 3 2 -12 31 -29 83 -50 l80 -32 -133 -1 c-73 0
-142 -5 -153 -10 -18 -10 -19 -23 -19 -215 0 -169 2 -205 14 -205 23 0 26 24
26 211 l0 179 383 -2 382 -3 5 -189 c4 -144 8 -190 18 -194 7 -2 16 5 19 17 5
20 12 21 137 21 89 0 136 -4 144 -12 20 -20 14 -28 -22 -28 -26 0 -36 -5 -41
-20 -16 -49 22 -110 67 -110 15 0 18 -9 18 -45 0 -39 -3 -45 -22 -45 -12 0
-35 16 -55 40 -56 65 -130 67 -190 4 l-33 -35 0 80 c0 74 -2 81 -20 81 -17 0
-19 -8 -22 -82 l-3 -83 -202 -3 -201 -2 -22 30 c-56 78 -167 78 -214 0 -16
-27 -22 -30 -72 -30 -51 0 -54 2 -54 24 0 23 5 25 48 28 34 2 47 7 47 18 0 12
-19 15 -110 15 -91 0 -110 -3 -110 -15 0 -10 13 -16 42 -18 42 -3 43 -4 43
-37 0 -43 20 -55 94 -55 50 0 56 -2 56 -20 0 -29 28 -69 61 -86 70 -36 154 -3
181 71 l12 35 221 0 221 0 12 -35 c28 -75 111 -107 182 -70 30 15 60 61 60 90
0 10 9 15 29 15 61 0 61 1 61 137 0 140 -10 173 -60 195 -38 16 -55 67 -52
156 2 55 -1 66 -23 87 -22 23 -32 25 -115 25 l-90 0 0 29 c0 48 -20 56 -169
61 l-136 5 75 29 c87 33 99 41 82 58 -8 8 -25 6 -67 -10 -31 -12 -58 -22 -60
-22 -1 0 17 20 41 44 30 30 44 52 44 70 0 31 -16 66 -39 83 -20 15 -76 17
-102 3 -21 -12 -53 -70 -79 -145 -11 -31 -20 -44 -24 -35 -3 8 -15 42 -27 75
-40 110 -111 146 -176 91z m100 -31 c18 -17 71 -154 64 -162 -7 -6 -90 49
-129 85 -16 14 -28 34 -28 43 0 42 63 65 93 34z m300 -6 c21 -33 -1 -68 -73
-116 -39 -25 -73 -44 -76 -41 -6 7 39 121 62 155 12 18 23 23 46 21 17 -2 35
-10 41 -19z m415 -351 c30 -30 14 -38 -83 -38 -95 0 -95 0 -95 25 0 25 1 25
83 25 51 0 88 -5 95 -12z m15 -138 c8 -32 12 -62 9 -65 -3 -3 -50 -5 -104 -5
l-98 0 0 65 0 65 89 0 89 0 15 -60z m107 -215 c0 -28 -21 -33 -40 -10 -15 18
-5 35 21 35 14 0 19 -7 19 -25z m-819 -134 c32 -33 36 -58 14 -100 -16 -32
-33 -41 -78 -41 -71 0 -105 93 -52 145 34 35 78 33 116 -4z m704 4 c36 -35 35
-96 -1 -124 -46 -36 -105 -27 -129 20 -22 42 -18 67 14 100 38 37 82 39 116 4z"/>
<path d="M331 246 c-16 -20 -5 -53 20 -61 27 -9 51 13 47 44 -2 20 -9 27 -29
29 -14 2 -31 -4 -38 -12z"/>
<path d="M1037 253 c-12 -12 -7 -50 8 -63 32 -27 82 23 55 55 -13 15 -51 20
-63 8z"/>
<path d="M217 723 c-14 -13 -8 -180 6 -192 19 -15 27 -4 27 40 0 35 2 38 33
41 20 2 32 8 32 18 0 10 -12 16 -32 18 -25 2 -33 8 -33 23 0 14 7 19 29 19 39
0 61 9 61 26 0 10 -15 14 -58 14 -32 0 -62 -3 -65 -7z"/>
<path d="M367 723 c-14 -13 -8 -180 6 -192 18 -14 27 -4 27 31 0 39 33 38 56
-2 10 -16 24 -32 31 -35 22 -8 26 21 8 49 -15 23 -15 27 -1 48 39 56 5 108
-72 108 -27 0 -52 -3 -55 -7z m98 -63 c0 -21 -5 -26 -32 -28 -31 -3 -33 -1
-33 28 0 29 2 31 33 28 27 -2 32 -7 32 -28z"/>
<path d="M537 723 c-4 -3 -7 -46 -7 -93 0 -103 7 -113 77 -108 35 2 49 7 51
20 3 13 -6 17 -40 20 -35 2 -44 7 -46 25 -3 18 2 22 30 25 45 4 45 32 1 36
-25 2 -33 8 -33 23 0 14 7 19 29 19 39 0 61 9 61 26 0 10 -15 14 -58 14 -32 0
-62 -3 -65 -7z"/>
<path d="M687 723 c-12 -12 -8 -178 5 -191 13 -13 75 -16 102 -6 32 12 17 33
-26 36 -35 2 -44 7 -46 25 -2 16 3 22 20 25 30 4 30 32 1 36 -15 2 -23 10 -23
23 0 14 7 19 29 19 39 0 61 9 61 26 0 10 -15 14 -58 14 -32 0 -62 -3 -65 -7z"/>
<path d="M51 427 c-6 -8 -8 -17 -4 -20 3 -4 71 -7 150 -7 116 0 143 3 143 14
0 22 -24 26 -155 26 -90 0 -125 -4 -134 -13z"/>
<path d="M515 339 c-16 -24 17 -29 171 -27 133 3 159 5 159 18 0 13 -26 15
-162 18 -110 2 -164 -1 -168 -9z"/>
</g>
</svg>
