<?xml version="1.0" standalone="no"?>
<!DOCTYPE svg PUBLIC "-//W3C//DTD SVG 20010904//EN"
 "http://www.w3.org/TR/2001/REC-SVG-20010904/DTD/svg10.dtd">
<svg version="1.0" xmlns="http://www.w3.org/2000/svg"
 width="128.000000pt" height="128.000000pt" viewBox="0 0 128.000000 128.000000"
 preserveAspectRatio="xMidYMid meet">

<g transform="translate(0.000000,128.000000) scale(0.100000,-0.100000)"
fill="#000000" stroke="none">
<path d="M119 1161 l-29 -29 0 -181 c0 -170 -1 -181 -19 -181 -10 0 -30 -9
-45 -21 l-26 -20 0 -298 c0 -252 2 -300 16 -319 l15 -22 430 0 429 0 0 31 c0
20 -10 40 -29 60 -25 24 -37 29 -80 29 l-51 0 0 65 0 65 125 0 125 0 0 -103
c0 -147 0 -147 150 -147 111 0 120 1 134 22 13 19 16 61 16 255 0 220 -1 234
-20 253 -11 11 -31 20 -45 20 l-25 0 0 246 0 246 -29 29 -29 29 -492 0 -492 0
-29 -29z m1013 -28 c16 -15 18 -36 18 -255 l0 -238 -64 0 c-58 0 -67 -3 -85
-26 -12 -15 -21 -35 -21 -46 0 -18 -11 -18 -232 -16 l-233 3 -3 90 -3 90 106
105 c58 57 105 110 105 117 0 36 -32 16 -134 -83 l-111 -109 -172 3 -173 3 0
171 c0 145 3 174 17 190 15 17 44 18 491 18 428 0 477 -2 494 -17z m-674 -415
c9 -9 12 -80 12 -260 l0 -248 -213 2 -212 3 -3 245 c-2 221 -1 246 15 258 23
17 384 17 401 0z m771 -132 c8 -9 11 -69 9 -192 l-3 -179 -105 0 -105 0 -3
179 c-2 123 1 183 9 192 16 20 182 20 198 0z m-249 -141 l0 -65 -232 2 -233 3
-3 63 -3 62 236 0 235 0 0 -65z m-430 -170 c0 -58 -2 -65 -20 -65 -18 0 -20 7
-20 65 0 58 2 65 20 65 18 0 20 -7 20 -65z m130 0 l0 -65 -40 0 -40 0 0 65 0
65 40 0 40 0 0 -65z m-212 -122 c-3 -17 -21 -18 -213 -18 -192 0 -210 1 -213
18 -3 16 12 17 213 17 201 0 216 -1 213 -17z m363 -3 l24 -19 -172 -1 c-166 0
-173 1 -173 20 0 19 7 20 149 20 133 0 151 -2 172 -20z m407 3 c-3 -16 -17
-18 -102 -21 -96 -3 -115 2 -116 31 0 4 50 7 111 7 100 0 110 -2 107 -17z"/>
<path d="M587 1104 c-4 -4 -7 -13 -7 -21 0 -9 17 -13 61 -13 52 0 60 2 57 18
-2 13 -15 18 -53 20 -28 2 -54 0 -58 -4z"/>
<path d="M711 866 c-104 -104 -124 -136 -88 -136 7 0 61 49 121 109 76 76 107
114 103 125 -4 9 -10 16 -14 16 -5 0 -59 -51 -122 -114z"/>
<path d="M176 461 c-32 -33 -47 -55 -43 -65 4 -9 10 -16 15 -16 16 0 114 108
108 119 -13 20 -31 11 -80 -38z"/>
<path d="M306 461 c-32 -33 -47 -55 -43 -65 4 -9 10 -16 15 -16 16 0 114 108
108 119 -13 20 -31 11 -80 -38z"/>
<path d="M1112 417 c-36 -37 -41 -57 -14 -57 20 0 82 59 82 78 0 23 -36 12
-68 -21z"/>
<path d="M625 461 c-8 -15 3 -31 21 -31 9 0 14 7 12 17 -4 20 -24 28 -33 14z"/>
</g>
</svg>
